PathFileType	4	(X/Y/Z)	C:/Users/beibeiliu/ov580/test_trc\sequence.5_training_dense_right.trc
DataRate	CameraRate	NumFrames	NumMarkers	Units	OrigDataRate	OrigDataStartFrame	OrigNumFrames
120	120	8	19	mm	120	1	53
Frame#	Time	ThumbCMC			ThumbMCP			ThumbIP			ThumbTip			IndexMCP			IndexPIP			IndexTip			MiddleMCP			MiddlePIP			MiddleTip			RingMCP			RingPIP			RingTip			PinkyMCP			PinkyPIP			PinkyTip			BackHand1			BackHand2			BackHand3	
		X0	Y0	Z0	X1	Y1	Z1	X2	Y2	Z2	X3	Y3	Z3	X4	Y4	Z4	X5	Y5	Z5	X6	Y6	Z6	X7	Y7	Z7	X8	Y8	Z8	X9	Y9	Z9	X10	Y10	Z10	X11	Y11	Z11	X12	Y12	Z12	X13	Y13	Z13	X14	Y14	Z14	X15	Y15	Z15	X16	Y16	Z16	X17	Y17	Z17	X18	Y18	Z18	
0	0	140.668	28.2061	98.2096	121.82	44.4271	71.2047	109.349	41.6915	44.7197	97.6424	23.076	29.1189	136.979	4.96625	30.8095	107.611	18.9097	30.3985	105.938	25.7714	60.0675	121.36	-13.5943	34.1428	95.8822	7.33441	35.2316	97.4443	16.4906	71.9348	108.117	-21.1541	43.6784	87.3746	-0.050194	53.6418	98.3717	7.68258	85.8719	100.803	-30.5336	56.0378	83.0874	-8.52197	66.3871	94.2605	1.0878	93.9631	141.774	-35.1242	87.525	146.567	-27.4417	119.902	159.545	-4.58107	98.2437	
1	0.00833333	150.43	28.2126	96.1894	133.259	37.1111	74.855	125.634	34.7057	44.0398	117.293	25.3452	24.2795	161.95	-1.17361	34.5015	135.88	7.11976	15.4478	114.991	14.691	41.1782	152.112	-19.1136	34.7922	121.162	-7.07461	21.9595	106.395	6.11314	52.119	137.301	-31.5904	38.9264	109.209	-24.1202	35.5034	105.215	-1.47558	63.8639	128.295	-43.5806	55.2375	103.395	-27.161	48.0385	105.89	-6.14449	71.4401	159.269	-34.246	93.8621	159.442	-26.0627	124.665	173.711	-2.79849	100.93	
2	0.0166667	150.881	32.9821	101.077	135.527	35.5187	72.7632	129.842	37.1063	44.0108	126.645	26.1026	23.421	176.989	2.40904	36.0721	162.973	2.52104	8.80634	129.465	0.319673	12.3402	174.595	-18.3304	30.8645	151.343	-18.1395	9.17668	117.841	-10.8731	23.851	165.85	-37.722	40.9618	144.913	-37.329	21.6603	116.583	-21.7981	34.9698	157.149	-49.9096	54.8323	135.428	-50.1974	35.9453	115.304	-28.8259	41.7755	174.433	-29.2544	94.2188	172.926	-24.0739	123.186	180.601	3.83108	103.287	
3	0.025	144.463	35.9504	93.4545	126.084	39.2794	72.1777	119.527	37.9913	41.5361	113.912	32.4247	19.6503	177.035	15.525	32.6735	168.653	9.08602	-0.120533	146.795	-6.64102	-12.7174	186.362	-12.6956	30.6642	173.711	-22.3497	0.393178	143.267	-31.2849	-8.94641	185.268	-29.592	37.3149	171.794	-42.5932	12.028	141.291	-42.2704	4.36014	178.321	-46.1332	55.3518	169.648	-59.6253	33.2521	138.622	-55.5454	18.3604	185.552	-14.7732	88.454	180.205	-11.2643	119.673	179.165	18.044	92.4696	
4	0.0333333	134.403	38.9634	89.3414	115.305	37.7649	70.9974	105.037	38.5536	43.3926	97.996	33.8794	20.802	169.132	22.5222	25.3337	165.232	20.7584	-1.31228	156.86	3.03528	-23.6122	181.499	2.4431	28.7423	178.408	-11.4156	-3.69019	165.995	-25.5877	-24.9583	185.382	-17.5796	38.4416	183.361	-31.1209	7.94049	166.335	-45.3993	-12.7698	185.305	-37.5506	56.195	186.043	-54.196	29.5365	169.461	-66.6337	9.48396	184.202	-3.39611	87.201	183.874	-1.40104	116.086	172.965	23.3979	92.6898	
5	0.0416667	123.437	39.852	87.4528	104.807	35.9033	71.4205	91.9762	36.2317	49.626	82.5788	34.3273	27.5068	154.074	30.7321	23.8505	155.705	24.3635	-3.73444	150.791	19.929	-30.4694	174.552	8.36366	26.2698	177.055	-2.15098	-1.31719	173.737	-12.4295	-27.0683	181.432	-7.76744	32.0439	186.508	-21.4788	10.378	180.216	-31.7649	-13.9555	187.236	-29.4148	51.3624	190.797	-40.2936	32.7158	193.019	-60.8109	8.26311	181.535	2.56451	82.2721	177.822	10.3954	109.346	164.086	30.9506	85.5958	
6	0.05	113.09	34.8105	89.0093	90.6694	32.0674	74.2251	74.9497	30.9739	49.8133	63.6073	28.286	33.0528	140.516	31.6578	22.4491	137.686	31.4276	-4.73982	143.886	24.6714	-28.2623	162.951	16.6251	22.1457	167.023	7.76637	-3.25624	171.667	-0.806176	-29.9072	177.987	-2.03821	30.7107	183.528	-11.5111	9.05622	185.982	-20.3828	-14.7754	182.445	-18.0551	49.7903	193.164	-33.0778	30.9091	204.203	-44.5633	9.12036	172.993	14.6619	80.9466	169.69	20.2792	107.958	150.7	36.5703	83.4845	
7	0.0583333	101.037	28.1854	94.4751	80.5921	18.8172	77.078	64.0302	14.97	55.8537	50.378	11.6056	37.4748	124.653	31.6654	22.2898	124.972	28.3691	-5.48668	127.778	29.4954	-29.7274	153.241	18.7723	19.7292	157.097	14.0145	-5.6596	167.179	9.6115	-33.817	170.816	4.07983	28.0362	178.693	-2.09096	6.41006	180.908	-4.34296	-16.6749	179.341	-9.67879	48.5662	189.299	-18.6654	30.932	208.328	-24.6185	12.0776	165.016	20.8257	74.1356	162.713	26.056	107.592	136.446	39.1996	85.0698	
